<!-- Copyright 2021 Peter Beverloo & AnimeCon. All rights reserved.
     Use of this source code is governed by a MIT license that can be
     found in the LICENSE file. -->
<svg xmlns="http://www.w3.org/2000/svg" viewBox="0 0 500 500">

    <!-- (0) Temporary styles. -->
    <path d="m0 0 h500 v500 h-500 v-500" style="fill: #ccc; stroke: none" />
    <style>
        circle, path {
            fill: #3e2723;
            stroke: #3e2723;
        }
    </style>

    <!-- (1) Marieke -->
    <!-- TODO -->

    <!-- (2) Clara -->
    <g>
        <!-- White background -->
        <path style="fill: #ffffff; stroke: none"
              d="m222 397 l5 -38 l9 9 l-2 35 l10 38 h-10" />
        <path style="fill: #ffffff; stroke: none"
              d="m199 269 L215 228 L242 195 L265 180 L267 185 L267 213 L247 242" />
        <path style="fill: #ffffff; stroke: none"
              d="m357 151 L379 151 L427 171 L458 201 L423 201 L377 185" />
        <path style="fill: #ffffff; stroke: none"
              d="m252 450 l20 -116 v-64 l-3 -59 l-3 -37 l46 -20 l44 -2 l35 80 l1 22 l-19 18 l20 22 l37 -2 l21 38 l-118 120" />

        <!-- Yellow highlights -->
        <path style="fill: #f8b40c; stroke: none"
              d="m261 170 l10 -8 h7 L286 167 v7 l-10 7 h-6 l-6 -6" />
        <path style="fill: #f8b40c; stroke: none"
              d="m331 141 l6 -4 h9 l6 5 v6 l-6 9 h-11 l-4 -5" />
        <path style="fill: #f8b40c; stroke: none"
              d="m359 265 L360 274 L367 281 h10 L388 274 h-7 L377 257 L382 253 L394 267 v9 L386 285
                 L374 288 h-13 L353 277 v-9" />

        <!-- Snout -->
        <path style="fill: #eeae91; stroke: none"
              d="m347 281 L349 269 L359 255 L375 249 L384 249 L394 256 L381 267 L351 281" />

        <!-- Outline of their body -->
        <path d="m343 136.6-5.4.9c-5.4.9-8.6 4.4-8.6 9.3 0 3.7-.2 4-3.2 4.5a130 130 0 0 0-21.8 5.2 97.5 97.5 0 0 0-15.1 8.2c-1.5 1.2-2 1.1-4.2-1.1-3.8-3.8-12.3-3.4-17.3.6-5.5 4.5-7.4 7.3-7.4 11.4 0 3.7-.4 4.4-3.7 6.6-2.1 1.3-5.3 3-7 3.7-1.8.8-3.3 1.7-3.3 2.2 0 .5-1.3 1.5-3 2.4-1.6.8-6.7 5.3-11.2 9.9-6.9 6.8-9.9 11-17.5 24.2a254.8 254.8 0 0 0-12.2 23.4c-3 7.6-6.7 23.7-5.7 24.7 1.6 1.6 31.4-11.4 38.2-16.6l4.5-3.1c2.3-1.5 15.5-14.5 17.4-17.1l3.6-4.9a56 56 0 0 0 4.1-6.4l1.5-2.8 1.2 4.3c5.6 21.1 6.2 83.1 1 117.4-1.8 12.1-4.8 29.6-6.9 41.5a765.3 765.3 0 0 0-6.4 37.1 14 14 0 0 1-.8 3.5c-.3.5-.9 4-1.3 7.7-.5 5.6-.9 6.6-2 5.7-.8-.7-1.9-2.6-2.5-4.4-.6-1.8-1.9-5-3-7.1-1.1-2.2-2-4.6-2-5.5 0-.8-.7-2.7-1.4-4.2-2.3-4.4-3.8-17.1-4-33.3l-.1-15 3.5-1.7c1.9-1 4-1.7 4.7-1.8 2.3 0 13.2-11.6 15.7-16.6 3.2-6.6 4.2-16 2.7-25a41 41 0 0 0-2-7.9c-.5-.5-1.2-2.1-1.6-3.5-2.2-7.2-15.8-21-20.6-21-3.3 0-3.7 2-1.7 7.6 1 2.8.8 4.3-1.1 10.1-2.4 7.1-2.2 6.8-16.8 19.9-2.9 2.6-6 6-6.8 7.7-1.7 3.4-2.1 15.2-.5 16.2.6.4.8 1 .5 1.5-.3.4 1.7 3.3 4.5 6.3 5 5.4 5.8 7.4 4.1 9.3a121.9 121.9 0 0 0-.2 52.9 46 46 0 0 1 2.1 7.1c.6 2.9 2.4 6.7 4.1 8.7l3 3.7h16.4c13 0 20.3-.6 36.4-3 18.9-2.8 21-3.4 34.9-8.9 37.7-15.1 71-41.3 90.6-71.3l7.5-11.6 6.8-2c9.6-3 14.2-7.8 21.9-23.2 1.1-2.1 1.8-5.9 1.8-9.6.1-5.1-.3-6.7-2.8-10.3a36.2 36.2 0 0 0-6.6-6.9c-2.1-1.6-3.5-3.3-3.3-4.2.4-1.2.3-1.2-.5-.2-.7 1.1-1.6 1-4.6-.6-5-2.7-16.4-3.7-25.6-2.3-6.4 1-7.5 1-9.1-.5-1.8-1.6-1.8-1.8 1.1-5 3.3-3.8 4.5-8.7 3.5-13.5-.7-3.2-1.3-4.2-4.6-7.9-1.5-1.6-1.5-1.9-.1-3.4 1.4-1.4 1.5-2.9.3-14.3-.7-7-1.6-13-2-13.3-.4-.3-1.4-4-2.1-8.3-.7-4.2-1.6-7.7-2-7.7-.4 0-1.3-2.6-2-5.8a33 33 0 0 0-2-6.7c-.4-.6-1.3-3.2-1.9-6-.7-2.7-1.8-5.6-2.4-6.4-1-1.2-.8-1.2 1.3-.1a71.7 71.7 0 0 0 20.6 10c1 1 11.1 3.7 17.8 4.8 4.5.8 41.3-.2 42.2-1.1.4-.3-1.1-3-3.1-5.9a111.4 111.4 0 0 0-32-28.7c-16.9-11.2-22.8-14.4-28.5-15.6a89 89 0 0 0-30-4.8l-9.9-.2-.7-3c-.8-3.8-5.7-8.5-8.8-8.5-1.3 0-3-.2-3.8-.4-.7-.2-2-.2-2.8 0zm4.7 4.5c3.3 1.2 4.3 2.6 4.3 6 0 7.2-12.3 9-16.5 2.5-2.2-3.3-1.2-6 2.8-8 3.8-1.9 5.6-2 9.4-.5zm32.3 14c17.3 4 32 10.4 46 20 8.8 6 27 22.3 27 24.1 0 1.6-22.4.2-34.5-2.1a108.4 108.4 0 0 1-40-15.6 35.6 35.6 0 0 1-7.2-10.7c-2.3-4.6-5.8-10.4-7.7-13a28 28 0 0 1-3.6-5.4c0-.9 10.2.4 20 2.7zm-19.6 5.8c5.3 10.8 5.3 11.1 1.4 11.1-7.8 0-16.6 9.4-18.3 19.5a63 63 0 0 1-1.8 7.2c-1 3-1.2 3.1-3.6 1.9a18.7 18.7 0 0 0-13.6-1.6c-9.7 2-17.5 10.1-17.5 18.1a22 22 0 0 0 7.3 14.1 20.7 20.7 0 0 0 26.6-1.2c2.5-2.5 4.2-5.2 4.7-7.4.8-4.4 1.8-4.5 5.1-.6 5.6 6.7 17.1 10.9 24.3 9 2.2-.6 5.3-2.2 7-3.7 1.7-1.4 3.2-2.4 3.4-2.2.2.2 1.3 4.4 2.5 9.4l3.2 12.8c1.2 4.5.6 5.6-1.8 3.5-8.5-7.4-21.5-5.9-32.2 3.8a39.8 39.8 0 0 0-12.1 23.2c-.2 1.2-3.1.2-10.7-4.1-14.2-7.9-28-20.8-35.7-33-2.7-4.3-3.1-2.5-.5 2.5a76.7 76.7 0 0 0 38.8 35c7.4 3.4 9.2 3.9 13.1 3.4l4.5-.6 2 4.2c2.3 5 8.6 8.8 14.5 8.8 4.1 0 12.4-2.4 15.6-4.5 1.9-1.2 2.4-1.2 3.8.4.9 1 1.6 2.2 1.6 2.7s-2.8 2.2-6.1 3.8a60 60 0 0 0-12.7 9.3l-6.6 6.4-6.1-2.5c-19.7-8.4-40.3-9.3-55.1-2.6-6.6 3-14.1 9.7-16.9 15-2.3 4.5-4.8 17.1-3.6 18.3.5.5 1.3-1.1 2-4.5 2.7-12.4 9.4-20.9 19.8-24.8 7.9-2.9 8-2.9 7.5 3.4-.6 7.3 2 11.5 9 15 9.5 4.7 22.3 3.1 29-3.6 3.3-3.3 3.8-4.4 3.8-8.4 0-4.5.1-4.6 2.8-4a75.6 75.6 0 0 1 35.2 25.2c0 3.5-19.5 14.1-31.1 16.9-9.6 2.2-30.4 2.9-43.7 1.3a46.6 46.6 0 0 0-11.7-.7c-.8 1.2 14.4 5 24.2 6a100 100 0 0 0 29.6-1.2 95.4 95.4 0 0 0 30.5-15.4l5.2-4.7 3 2.5c1.6 1.4 4.6 3.1 6.7 3.7l5.1 1.6c.9.2-.4 2.8-3.7 7.8a193 193 0 0 1-99.9 75.1c-8.1 2.6-11.1 2.7-8 .2 8.4-6.8 14.2-28.1 11.8-43.3-2.7-16.8-14.6-27.6-32.1-29.1l-7.1-.6.7-4.1c1.2-7.7 4.5-51.1 4.5-60.1 0-9.5-2.3-40.7-4-53.5-1.1-7.8-4.2-25.8-6-34.5a55 55 0 0 1-.5-12.6l.7-7.5 4.1-.3c8.4-.4 14.4-5.5 15.4-12.7l.5-4 10.7-4.2c10-4 28.4-9.2 32.3-9.2 1 0 3.2.9 5 2 1.8 1.1 5 2 7.1 2 4.3 0 10.6-2.6 11.4-4.7 1-2.5 2.3-1.3 5.7 5.6zm-81 6.2c4.5 3.6 2.6 9.8-4 12.5-4.8 2-10.4-.7-10.4-5.1 0-3 7.2-9.4 10.6-9.5.6 0 2.3.9 3.8 2.1zm-14.1 19.5-.3 14.6c-.2 11.5-.3 11.8-3.8 18-5.3 9.1-21.6 25-33.7 33-11 7.2-22.4 13.3-23.3 12.4-.3-.4.2-3.1 1.2-6.2a135.8 135.8 0 0 1 47.9-67.9c11.6-8.6 12.3-8.8 12-3.9zm101.1 3c2.4.9 1.9 2.2-1.3 3.9a49.3 49.3 0 0 0-14.8 15l-2 3.8-1.6-2.4c-2.3-3.2-2.1-9.7.3-13.7 3.3-5.3 13.6-8.8 19.4-6.6zm9 8.5c2.1 5 .5 10.7-4.3 15.1-3.9 3.7-6.1 4.4-12.1 3.9-3.8-.3-8-2.2-8-3.7 0-2 1.6-2.5 3-.9 1.5 1.8 5.1 2 6.8.3 1.9-1.9 1.4-5.5-1-7.2-2-1.4-2.1-1.8-.7-3.1a52.8 52.8 0 0 1 13.7-7.4c.7-.1 1.9 1.3 2.6 3zm-38.7 6.5c3.3 2.5 7.2 8.8 6.1 9.9-.3.3-1.8 0-3.4-.6-1.6-.7-7.2-1.2-12.4-1.3-7.4 0-10.2.3-12.9 1.8l-3.4 1.8.7-2.8a16.2 16.2 0 0 1 25.3-8.8zm1 11.9c2.4.4 4.5 1 4.8 1.5.8 1.3-3.8 7.3-7.4 9.7-5.8 3.9-14.8 2.6-20-3-1.4-1.5-2.1-3.3-1.8-4.1.9-2.2 2.7-2 2.7.2 0 1.1.9 2.7 2 3.7 1.7 1.5 2.4 1.6 4.5.7 2.4-1.1 2.9-2.4 2.5-6.9-.1-1.7.5-2.2 2.7-2.6 1.5-.2 3.5-.3 4.3-.1l5.7.9zm48.9 36.1c4 1.9 5 3.2 3.6 4.6-.7.7-1.4.3-2.1-1.1-2.4-4.3-11.8-1.7-14.1 3.9-1.4 3.5-.8 4.9 1.4 3.1 1-.8 2.1-.9 3.2-.3 1.4.8 1.3 1.2-1.2 2.9-4.5 3.2-13.1 7.3-13.8 6.6-1.2-1.3-.6-4.3 1-4.3 3 0 .7-2.5-2.9-3.1a9 9 0 0 0-6.7 1.2c-3.7 2.3-3.8 1.6-.5-2.7 7.4-9.6 23.3-15 32.1-10.8zm1.1 8.6c4.7 5.1 6.3 8 6.3 11.3 0 8-9.4 14.6-22.1 15.3-7.2.4-7.9.3-10.2-2-2.5-2.6-6.2-13.1-5.2-14.8 1.4-2.3 3.3-.8 3.8 3.1.7 5 4.7 9.5 9.7 10.9 8.4 2.3 20-5.2 20-12.9 0-3-3.3-8.4-6.5-10.5-1.4-.9-2.5-2.1-2.5-2.6 0-2.1 3.8-.8 6.7 2.2zm38.8 37.5c10.8 5.6 15.9 13.6 14.6 22.9a25.7 25.7 0 0 1-26.3 22.4c-9.5 0-15.2-3.1-25.3-13.7a90.5 90.5 0 0 0-13.9-12.3 19 19 0 0 1-5.6-4.6c0-1.9 9.5-10.1 15.1-13a39.3 39.3 0 0 1 24.4-5.1c10.1.3 11.5.6 17 3.4zm-193.7 68.9c1.6.5 2.1 1.2 1.7 2.2a114.3 114.3 0 0 0 6.6 66.3c2.1 4.3 1.5 5.2-2.7 4-1.9-.5-3.5-1.9-4.6-4.2-2.5-5-6.6-17.6-7.8-23.9-1.8-9.1-1.3-40.8.7-44.3.5-.9 3-.9 6.1-.1z" />
    </g>

    <!-- (3) The outer circle -->
    <g>
          <circle r="220" cy="250" cx="250" stroke-width="60" style="fill: transparent" />

          <!-- (3a) Clara overlays -->
          <path style="fill: #ffffff; stroke: none"
                d="m423.5 174 L439 186 L453 198 L432.7 198.5" />
          <path style="fill: #ffffff; stroke: none"
                d="M415.7 343.4 a1,1 0 0,0 0,-47" />

      </g>

    <!-- (4) The J-POP logo -->
    <!-- TODO -->

    <!-- (5) The Volunteer Portal logo -->
    <!-- TODO -->
</svg>
